HIERARCHY
ROOT Hips
{
	OFFSET 0.000000 0.000000 0.000000 
	CHANNELS 6 Xposition Yposition Zposition Yrotation Zrotation Xrotation 
	JOINT Lumbar
	{
		OFFSET 0.000000 0.000000 0.000000 
		CHANNELS 3 Zrotation Xrotation Yrotation
		JOINT Neck
		{
			OFFSET 0.000000 0.445665 0.000000 
			CHANNELS 3 Zrotation Xrotation Yrotation
			End Site
			{
				OFFSET 0.000000 0.227535 0.000000 
			}
		}
		JOINT RightShoulder
		{
			OFFSET 0.019635 0.377685 0.194865 
			CHANNELS 3 Zrotation Xrotation Yrotation
			JOINT RightElbow
			{
				OFFSET 0.000000 -0.243375 0.000000 
				CHANNELS 2 Zrotation Yrotation
				JOINT RightWrist
				{
					OFFSET 0.000000 -0.264825 0.000000 
					CHANNELS 2 Zrotation Xrotation
					End Site
					{
						OFFSET 0.006600 -0.176220 0.000990 
					}
				}
			}
		}
		JOINT LeftShoulder
		{
			OFFSET 0.019635 0.377685 -0.194865 
			CHANNELS 3 Zrotation Xrotation Yrotation
			JOINT LeftElbow
			{
				OFFSET 0.000000 -0.243375 0.000000 
				CHANNELS 2 Zrotation Yrotation
				JOINT LeftWrist
				{
					OFFSET 0.000000 -0.264825 0.000000 
					CHANNELS 2 Zrotation Xrotation
					End Site
					{
						OFFSET 0.006600 -0.176220 -0.000990 
					}
				}
			}
		}
	}
	JOINT RightHip
	{
		OFFSET 0.052140 -0.069960 0.075570 
		CHANNELS 3 Zrotation Xrotation Yrotation
		JOINT RightKnee
		{
			OFFSET 0.000000 -0.402270 0.000000 
			CHANNELS 1 Zrotation
			JOINT RightAnkle
			{
				OFFSET 0.000000 -0.404085 0.000000 
				CHANNELS 3 Zrotation Xrotation Yrotation
				End Site
				{
					OFFSET 0.204105 -0.089430 0.008415 
				}
			}
		}
	}
	JOINT LeftHip
	{
		OFFSET 0.052140 -0.069960 -0.075570 
		CHANNELS 3 Zrotation Xrotation Yrotation
		JOINT LeftKnee
		{
			OFFSET 0.000000 -0.402270 0.000000 
			CHANNELS 1 Zrotation
			JOINT LeftAnkle
			{
				OFFSET 0.000000 -0.404085 0.000000 
				CHANNELS 3 Zrotation Xrotation Yrotation
				End Site
				{
					OFFSET 0.204105 -0.089430 -0.008415 
				}
			}
		}
	}
}
MOTION
Frames: 14
Frame Time: 0.02
-0.00118 5e-05 -0.00026 179.63469 -33.47806 -2.96184 41.96125 2.58859 -6.00022 -13.22064 -0.75498 -1.2723 78.54722 -98.3135 55.63412 5.78692 99.71542 11.5329 2.49958 166.38581 83.97844 30.03214 8.01597 -77.38871 -10.72488 -1.88936 37.93501 -5.13438 -15.7168 -22.47469 -6.72273 -1.8164 -3.12049 42.42493 7.68908 2.83455 -27.62777 -6.58499 1.63152 3.02237
-0.00146 4e-05 -0.00046 179.66442 -33.47985 -2.95363 41.96376 2.58215 -6.0072 -13.21008 -0.75233 -1.2729 78.13248 -98.33273 55.63412 5.78693 99.65936 11.49309 2.41375 166.38581 83.97257 30.1896 7.99061 -77.3562 -10.71277 -1.85994 37.92893 -5.05717 -15.36236 -22.4732 -6.72375 -1.85466 -3.13994 42.41038 7.72548 2.96162 -27.62774 -6.58756 1.61767 3.01543
-0.00175 2e-05 -0.00065 179.69402 -33.48161 -2.94545 41.96625 2.57572 -6.01413 -13.19957 -0.74966 -1.27351 77.7184 -98.35188 55.63412 5.78693 99.60344 11.45334 2.32806 166.38581 83.96675 30.3467 7.96527 -77.32371 -10.70068 -1.83059 37.92283 -4.98019 -15.00901 -22.47171 -6.72476 -1.8928 -3.15933 42.39582 7.76181 3.08841 -27.6277 -6.59013 1.60385 3.00851
-0.00204 1e-05 -0.00085 179.72365 -33.48338 -2.93727 41.96875 2.56929 -6.02108 -13.18904 -0.74701 -1.27411 77.30482 -98.37105 55.63412 5.78694 99.54755 11.41364 2.24248 166.38581 83.9609 30.5037 7.93997 -77.29128 -10.68861 -1.80126 37.91677 -4.90321 -14.65567 -22.47022 -6.72578 -1.93094 -3.17872 42.38131 7.79811 3.2151 -27.62767 -6.59269 1.59004 3.00159
-0.00233 -0 -0.00105 179.75342 -33.48519 -2.92906 41.97126 2.56285 -6.0281 -13.17847 -0.74439 -1.27472 76.89084 -98.39031 55.63412 5.78694 99.49154 11.37391 2.15682 166.38581 83.95499 30.661 7.91467 -77.25885 -10.67653 -1.77188 37.91073 -4.82601 -14.30121 -22.46872 -6.7268 -1.9692 -3.19818 42.36683 7.83447 3.34204 -27.62764 -6.59526 1.57621 2.99466
-0.00262 -1e-05 -0.00125 179.78268 -33.48684 -2.92093 41.97371 2.55646 -6.03482 -13.16808 -0.74163 -1.27532 76.47662 -98.40922 55.63412 5.78695 99.43582 11.33414 2.07105 166.38581 83.94938 30.81766 7.88924 -77.22624 -10.6644 -1.74257 37.90451 -4.7495 -13.9502 -22.46726 -6.72779 -2.00706 -3.21743 42.35211 7.87072 3.46851 -27.62758 -6.59781 1.56243 2.98777
-0.00291 -3e-05 -0.00145 179.81293 -33.4888 -2.91265 41.97629 2.54996 -6.04214 -13.15734 -0.73914 -1.27593 76.06322 -98.42883 55.63412 5.78695 99.37958 11.29449 1.98559 166.38581 83.94314 30.97544 7.86411 -77.19403 -10.65239 -1.71315 37.89867 -4.67168 -13.59273 -22.46572 -6.72884 -2.04569 -3.23707 42.33787 7.90716 3.59576 -27.62759 -6.6004 1.54855 2.9808
-0.00319 -4e-05 -0.00165 179.84227 -33.49049 -2.90451 41.97876 2.54356 -6.04891 -13.14691 -0.73641 -1.27653 75.64928 -98.44778 55.63412 5.78696 99.3238 11.25474 1.89987 166.38581 83.93755 31.1322 7.83867 -77.16146 -10.64029 -1.68383 37.89249 -4.59505 -13.24105 -22.46426 -6.72983 -2.08363 -3.25636 42.32321 7.94341 3.7223 -27.62754 -6.60295 1.53476 2.9739
-0.00348 -5e-05 -0.00184 179.87048 -33.4918 -2.89654 41.98105 2.53731 -6.05498 -13.13691 -0.73336 -1.27713 75.23355 -98.46596 55.63411 5.78698 99.26862 11.21476 1.81368 166.38582 83.93249 31.28775 7.813 -77.12836 -10.628 -1.65463 37.88582 -4.51995 -12.89694 -22.46288 -6.73076 -2.12066 -3.27521 42.30795 7.9795 3.84805 -27.62739 -6.60547 1.52109 2.96708
-0.00377 -7e-05 -0.00205 179.90513 -33.49515 -2.8876 41.98422 2.53026 -6.06498 -13.12457 -0.73208 -1.27776 74.82469 -98.4887 55.63414 5.78692 99.21011 11.17579 1.72972 166.38579 83.92357 31.4504 7.78909 -77.09804 -10.61654 -1.62473 37.88173 -4.43628 -12.51076 -22.46099 -6.73207 -2.16273 -3.29653 42.29589 8.01673 3.97859 -27.62775 -6.60822 1.50675 2.95981
-0.00405 -8e-05 -0.00223 179.92625 -33.4943 -2.8807 41.98564 2.52488 -6.06677 -13.11711 -0.72711 -1.27832 74.40364 -98.50171 55.63409 5.78704 99.15856 11.13489 1.6414 166.38583 83.92333 31.59795 7.76118 -77.06207 -10.60349 -1.59632 37.87239 -4.37055 -12.21242 -22.46019 -6.73259 -2.19428 -3.31269 42.27726 8.05143 4.09884 -27.62705 -6.61046 1.49382 2.95349
-0.00428 -9e-05 -0.00233 179.90922 -33.48083 -2.87945 41.98143 2.52424 -6.04489 -13.12361 -0.71141 -1.27868 73.92998 -98.48862 55.6338 5.78761 99.12682 11.08694 1.53821 166.38598 83.94279 31.70414 7.72433 -77.00859 -10.58485 -1.57199 37.84691 -4.35552 -12.16515 -22.46235 -6.7308 -2.1957 -3.31404 42.23875 8.07997 4.19191 -27.62325 -6.61127 1.48496 2.94982
-0.00449 -0.00011 -0.00241 179.87878 -33.46334 -2.88024 41.97561 2.52524 -6.01494 -13.13492 -0.69208 -1.27897 73.44799 -98.46563 55.63344 5.78836 99.10201 11.0374 1.43124 166.38611 83.97179 31.79487 7.68298 -76.94985 -10.56487 -1.54925 37.81648 -4.35827 -12.20441 -22.4656 -6.72824 -2.18677 -3.31031 42.19397 8.10579 4.27434 -27.61843 -6.61157 1.47752 2.9471
-0.00471 -0.00012 -0.00249 179.85516 -33.44841 -2.88004 41.97106 2.52538 -5.98943 -13.14366 -0.67485 -1.27929 72.98182 -98.44675 55.63313 5.78902 99.07345 10.98969 1.32781 166.38639 83.99909 31.89301 7.6425 -76.89475 -10.54629 -1.52566 37.78949 -4.35185 -12.19725 -22.46836 -6.72615 -2.18341 -3.30931 42.15325 8.13238 4.36108 -27.61422 -6.61212 1.46928 2.94393
